<?xml version="1.0" standalone="no"?>
<!DOCTYPE svg PUBLIC "-//W3C//DTD SVG 20010904//EN"
 "http://www.w3.org/TR/2001/REC-SVG-20010904/DTD/svg10.dtd">
<svg version="1.0" xmlns="http://www.w3.org/2000/svg"
 width="500.000000pt" height="500.000000pt" viewBox="0 0 500.000000 500.000000"
 preserveAspectRatio="xMidYMid meet">
<metadata>
Created by potrace 1.14, written by Peter Selinger 2001-2017
</metadata>
<g transform="translate(0.000000,500.000000) scale(0.100000,-0.100000)"
fill="#000000" stroke="none">
<path d="M2875 4880 c-16 -4 -52 -16 -80 -27 -27 -12 -72 -29 -98 -38 -46 -16
-87 -51 -175 -148 -25 -28 -50 -42 -105 -58 -86 -25 -134 -49 -206 -100 -30
-22 -65 -39 -77 -39 -40 0 -155 -48 -249 -105 -102 -61 -115 -72 -200 -175
-33 -40 -69 -83 -80 -94 -12 -12 -35 -46 -52 -76 -18 -30 -39 -64 -47 -75 -86
-112 -102 -147 -121 -260 -4 -22 -10 -44 -14 -50 -36 -47 -59 -231 -33 -257
18 -18 15 -40 -17 -104 -42 -83 -58 -186 -56 -345 1 -116 4 -140 23 -178 37
-75 31 -103 -39 -176 -64 -67 -76 -106 -35 -114 11 -2 44 -21 73 -42 29 -22
63 -44 76 -50 26 -12 46 -40 53 -73 2 -11 11 -26 19 -32 8 -6 15 -15 15 -20 0
-5 14 -23 30 -41 17 -18 30 -35 30 -39 0 -29 127 -98 221 -120 72 -18 278 -26
322 -13 36 10 45 -1 108 -120 64 -125 63 -117 21 -143 -61 -37 -102 -79 -147
-149 -41 -62 -51 -85 -59 -126 -9 -44 -51 -185 -77 -258 -15 -44 -30 -96 -33
-115 -8 -58 -18 -83 -49 -128 -56 -83 -79 -157 -82 -269 -3 -112 -10 -137 -69
-233 -49 -82 -120 -211 -203 -367 l-64 -123 1406 0 c773 0 1405 3 1405 8 0 19
-33 125 -73 240 -55 155 -120 360 -122 387 -2 24 29 44 67 45 15 0 30 4 33 10
3 5 14 10 23 10 28 0 46 40 50 110 4 76 15 94 51 85 24 -7 53 -9 93 -6 10 1
28 11 40 23 23 23 68 32 79 16 4 -6 31 -11 60 -13 72 -3 157 33 184 78 32 54
15 222 -40 392 -9 28 -20 64 -25 80 -5 17 -18 64 -30 105 -12 41 -24 82 -26
90 -2 8 -42 166 -89 350 -47 184 -88 346 -91 359 -3 14 -7 28 -10 32 -5 8
-114 384 -120 413 -7 39 -69 255 -129 451 -18 61 -54 182 -80 270 -56 191 -98
325 -131 420 -14 39 -41 117 -61 175 -46 136 -101 254 -158 340 -41 62 -176
199 -250 255 -72 54 -166 95 -251 111 -12 2 -53 14 -90 25 -72 22 -187 31
-239 19z m718 -1955 c11 -63 27 -113 42 -128 10 -11 13 -44 12 -143 -1 -70 2
-177 8 -236 13 -136 5 -163 -52 -172 -77 -11 -141 -16 -280 -21 l-142 -5 -49
45 c-28 25 -53 58 -57 72 -3 15 -24 52 -46 83 -36 51 -39 61 -39 122 0 37 4
78 10 93 9 25 12 26 64 20 60 -7 106 12 106 45 0 23 18 37 54 44 37 7 48 17
87 81 18 30 39 55 46 55 15 0 82 39 108 63 11 11 38 28 60 38 36 16 40 17 51
1 6 -9 14 -35 17 -57z"/>
</g>
</svg>
